# xmcd
#
# Track frame offsets: 
#        150
#        12764
#        26516
#        41051
#        54772
#        67832
#        79714
#        92807
#        105374
#        118463
#        131540
#        144005
#        156606
#        169910
#        184761
#        197174
#        211284
#        225260
#        239541
#        253630
#        265811
#        279371
#        292034
#        304958
#        319482
#
# Disc length: 4460 seconds
#
# Revision: 0
# Processed by: cddbd v1.5.1PL0 Copyright (c) Steve Scherf et al.
# Submitted via: ExactAudioCopy v0.95a5
#
DISCID=62116a19
DTITLE=Big Bill Broonzy - Play Your Hand
DYEAR=2001
DGENRE=
TTITLE0=Please Believe Me
TTITLE1=Why Did You Do That To Me?
TTITLE2=You Got to Play Your Hand
TTITLE3=Just a Dream
TTITLE4=Doing the Best I Can
TTITLE5=Partnership Woman
TTITLE6=Humble Blues
TTITLE7=Oh Baby
TTITLE8=Cell No. 13 Blues
TTITLE9=When I Get to Thinkin'
TTITLE10=Roll Dem Bones
TTITLE11=You Got the Best Go
TTITLE12=I Can Fix It
TTITLE13=Old Man Blues
TTITLE14=I Can't Write
TTITLE15=What Can I Do
TTITLE16=San Antonio Blues
TTITLE17=Saturday Evening Blues
TTITLE18=Big Bill's Boogie
TTITLE19=Just Rockin'
TTITLE20=Shoo Blues
TTITLE21=Stop Lying Woman
TTITLE22=Rambling Bill
TTITLE23=Summer Time Blues
TTITLE24=Bad Luck Man
EXTD=
EXTT0=
EXTT1=
EXTT2=
EXTT3=
EXTT4=
EXTT5=
EXTT6=
EXTT7=
EXTT8=
EXTT9=
EXTT10=
EXTT11=
EXTT12=
EXTT13=
EXTT14=
EXTT15=
EXTT16=
EXTT17=
EXTT18=
EXTT19=
EXTT20=
EXTT21=
EXTT22=
EXTT23=
EXTT24=
PLAYORDER=
